<mxfile host="app.diagrams.net" agent="Mozilla/5.0 (Windows NT 10.0; Win64; x64) AppleWebKit/537.36 (KHTML, like Gecko) Chrome/136.0.0.0 Safari/537.36" version="26.2.8">
  <diagram name="Page-1" id="tzby-uRX3yLcfS6eRWcx">
    <mxGraphModel dx="908" dy="572" grid="1" gridSize="10" guides="1" tooltips="1" connect="1" arrows="1" fold="1" page="1" pageScale="1" pageWidth="850" pageHeight="1100" math="0" shadow="0">
      <root>
        <mxCell id="0" />
        <mxCell id="1" parent="0" />
        <mxCell id="0rJ_B0rz1wM-ID0uHcPe-16" style="edgeStyle=orthogonalEdgeStyle;rounded=0;orthogonalLoop=1;jettySize=auto;html=1;exitX=0.25;exitY=1;exitDx=0;exitDy=0;entryX=0.5;entryY=0;entryDx=0;entryDy=0;startArrow=ERone;startFill=0;endArrow=ERmany;endFill=0;" edge="1" parent="1" source="0rJ_B0rz1wM-ID0uHcPe-1" target="0rJ_B0rz1wM-ID0uHcPe-2">
          <mxGeometry relative="1" as="geometry">
            <Array as="points">
              <mxPoint x="435" y="495" />
              <mxPoint x="155" y="495" />
            </Array>
          </mxGeometry>
        </mxCell>
        <mxCell id="0rJ_B0rz1wM-ID0uHcPe-17" style="edgeStyle=orthogonalEdgeStyle;rounded=0;orthogonalLoop=1;jettySize=auto;html=1;exitX=0.5;exitY=1;exitDx=0;exitDy=0;entryX=0.25;entryY=0;entryDx=0;entryDy=0;startArrow=ERone;startFill=0;endArrow=ERmany;endFill=0;" edge="1" parent="1" source="0rJ_B0rz1wM-ID0uHcPe-1" target="0rJ_B0rz1wM-ID0uHcPe-3">
          <mxGeometry relative="1" as="geometry" />
        </mxCell>
        <mxCell id="0rJ_B0rz1wM-ID0uHcPe-18" style="edgeStyle=orthogonalEdgeStyle;rounded=0;orthogonalLoop=1;jettySize=auto;html=1;exitX=0.75;exitY=1;exitDx=0;exitDy=0;entryX=0.5;entryY=0;entryDx=0;entryDy=0;startArrow=ERone;startFill=0;endArrow=ERmany;endFill=0;" edge="1" parent="1" source="0rJ_B0rz1wM-ID0uHcPe-1" target="0rJ_B0rz1wM-ID0uHcPe-4">
          <mxGeometry relative="1" as="geometry" />
        </mxCell>
        <mxCell id="0rJ_B0rz1wM-ID0uHcPe-19" style="edgeStyle=orthogonalEdgeStyle;rounded=0;orthogonalLoop=1;jettySize=auto;html=1;exitX=1;exitY=0.75;exitDx=0;exitDy=0;entryX=0.25;entryY=0;entryDx=0;entryDy=0;startArrow=ERone;startFill=0;endArrow=ERmany;endFill=0;" edge="1" parent="1" source="0rJ_B0rz1wM-ID0uHcPe-1" target="0rJ_B0rz1wM-ID0uHcPe-5">
          <mxGeometry relative="1" as="geometry" />
        </mxCell>
        <mxCell id="0rJ_B0rz1wM-ID0uHcPe-1" value="Colleague" style="rounded=0;whiteSpace=wrap;html=1;" vertex="1" parent="1">
          <mxGeometry x="405" y="425" width="120" height="60" as="geometry" />
        </mxCell>
        <mxCell id="0rJ_B0rz1wM-ID0uHcPe-22" style="edgeStyle=orthogonalEdgeStyle;rounded=0;orthogonalLoop=1;jettySize=auto;html=1;exitX=0.75;exitY=1;exitDx=0;exitDy=0;entryX=0.75;entryY=0;entryDx=0;entryDy=0;startArrow=classic;startFill=0;endArrow=none;" edge="1" parent="1" source="0rJ_B0rz1wM-ID0uHcPe-2" target="0rJ_B0rz1wM-ID0uHcPe-11">
          <mxGeometry relative="1" as="geometry" />
        </mxCell>
        <mxCell id="0rJ_B0rz1wM-ID0uHcPe-2" value="Knowledge" style="rounded=0;whiteSpace=wrap;html=1;" vertex="1" parent="1">
          <mxGeometry x="95" y="545" width="120" height="60" as="geometry" />
        </mxCell>
        <mxCell id="0rJ_B0rz1wM-ID0uHcPe-24" style="edgeStyle=orthogonalEdgeStyle;rounded=0;orthogonalLoop=1;jettySize=auto;html=1;exitX=0.5;exitY=1;exitDx=0;exitDy=0;entryX=0.5;entryY=0;entryDx=0;entryDy=0;startArrow=ERone;startFill=0;endArrow=ERmany;endFill=0;" edge="1" parent="1" source="0rJ_B0rz1wM-ID0uHcPe-3" target="0rJ_B0rz1wM-ID0uHcPe-7">
          <mxGeometry relative="1" as="geometry" />
        </mxCell>
        <mxCell id="0rJ_B0rz1wM-ID0uHcPe-3" value="Responsibility" style="rounded=0;whiteSpace=wrap;html=1;" vertex="1" parent="1">
          <mxGeometry x="295" y="545" width="120" height="60" as="geometry" />
        </mxCell>
        <mxCell id="0rJ_B0rz1wM-ID0uHcPe-26" style="edgeStyle=orthogonalEdgeStyle;rounded=0;orthogonalLoop=1;jettySize=auto;html=1;exitX=0.5;exitY=1;exitDx=0;exitDy=0;entryX=0.5;entryY=0;entryDx=0;entryDy=0;startArrow=ERone;startFill=0;endArrow=ERmany;endFill=0;" edge="1" parent="1" source="0rJ_B0rz1wM-ID0uHcPe-4" target="0rJ_B0rz1wM-ID0uHcPe-8">
          <mxGeometry relative="1" as="geometry" />
        </mxCell>
        <mxCell id="0rJ_B0rz1wM-ID0uHcPe-4" value="Communication" style="rounded=0;whiteSpace=wrap;html=1;" vertex="1" parent="1">
          <mxGeometry x="485" y="545" width="120" height="60" as="geometry" />
        </mxCell>
        <mxCell id="0rJ_B0rz1wM-ID0uHcPe-5" value="Integration" style="rounded=0;whiteSpace=wrap;html=1;" vertex="1" parent="1">
          <mxGeometry x="655" y="545" width="120" height="60" as="geometry" />
        </mxCell>
        <mxCell id="0rJ_B0rz1wM-ID0uHcPe-15" style="edgeStyle=orthogonalEdgeStyle;rounded=0;orthogonalLoop=1;jettySize=auto;html=1;exitX=0.5;exitY=1;exitDx=0;exitDy=0;startArrow=ERone;startFill=0;endArrow=ERmany;endFill=0;" edge="1" parent="1" source="0rJ_B0rz1wM-ID0uHcPe-6" target="0rJ_B0rz1wM-ID0uHcPe-1">
          <mxGeometry relative="1" as="geometry" />
        </mxCell>
        <mxCell id="0rJ_B0rz1wM-ID0uHcPe-20" style="edgeStyle=orthogonalEdgeStyle;rounded=0;orthogonalLoop=1;jettySize=auto;html=1;exitX=1;exitY=0.75;exitDx=0;exitDy=0;startArrow=ERone;startFill=0;endArrow=ERmany;endFill=0;" edge="1" parent="1" source="0rJ_B0rz1wM-ID0uHcPe-6" target="0rJ_B0rz1wM-ID0uHcPe-5">
          <mxGeometry relative="1" as="geometry" />
        </mxCell>
        <mxCell id="0rJ_B0rz1wM-ID0uHcPe-6" value="Team" style="rounded=0;whiteSpace=wrap;html=1;" vertex="1" parent="1">
          <mxGeometry x="405" y="305" width="120" height="60" as="geometry" />
        </mxCell>
        <mxCell id="0rJ_B0rz1wM-ID0uHcPe-7" value="Task" style="rounded=0;whiteSpace=wrap;html=1;" vertex="1" parent="1">
          <mxGeometry x="295" y="685" width="120" height="60" as="geometry" />
        </mxCell>
        <mxCell id="0rJ_B0rz1wM-ID0uHcPe-8" value="Session" style="rounded=0;whiteSpace=wrap;html=1;" vertex="1" parent="1">
          <mxGeometry x="485" y="685" width="120" height="60" as="geometry" />
        </mxCell>
        <mxCell id="0rJ_B0rz1wM-ID0uHcPe-9" value="Step" style="rounded=0;whiteSpace=wrap;html=1;" vertex="1" parent="1">
          <mxGeometry x="305" y="735" width="120" height="60" as="geometry" />
        </mxCell>
        <mxCell id="0rJ_B0rz1wM-ID0uHcPe-10" value="Conversation" style="rounded=0;whiteSpace=wrap;html=1;" vertex="1" parent="1">
          <mxGeometry x="495" y="725" width="120" height="60" as="geometry" />
        </mxCell>
        <mxCell id="0rJ_B0rz1wM-ID0uHcPe-21" style="edgeStyle=orthogonalEdgeStyle;rounded=0;orthogonalLoop=1;jettySize=auto;html=1;exitX=1;exitY=0.25;exitDx=0;exitDy=0;entryX=0;entryY=0.75;entryDx=0;entryDy=0;" edge="1" parent="1" source="0rJ_B0rz1wM-ID0uHcPe-11" target="0rJ_B0rz1wM-ID0uHcPe-9">
          <mxGeometry relative="1" as="geometry" />
        </mxCell>
        <mxCell id="0rJ_B0rz1wM-ID0uHcPe-11" value="Supervising" style="rounded=0;whiteSpace=wrap;html=1;" vertex="1" parent="1">
          <mxGeometry x="65" y="695" width="120" height="60" as="geometry" />
        </mxCell>
        <mxCell id="0rJ_B0rz1wM-ID0uHcPe-23" value="MCP" style="rounded=0;whiteSpace=wrap;html=1;" vertex="1" parent="1">
          <mxGeometry x="665" y="585" width="120" height="60" as="geometry" />
        </mxCell>
      </root>
    </mxGraphModel>
  </diagram>
</mxfile>
